<?xml version="1.0" encoding="utf-8"?>
<!-- Generator: Adobe Illustrator 22.0.1, SVG Export Plug-In . SVG Version: 6.00 Build 0)  -->
<svg version="1.1" xmlns="http://www.w3.org/2000/svg" xmlns:xlink="http://www.w3.org/1999/xlink" x="0px" y="0px"
	 viewBox="0 0 1536 1536" style="enable-background:new 0 0 1536 1536;" xml:space="preserve">
<style type="text/css">
	.st0{display:none;}
	.st1{display:inline;fill:none;stroke:#000000;stroke-miterlimit:10;}
	.st2{fill:#B3B3B3;}
	.st3{fill:#56AA1C;}
	.st4{fill:#FFFFFF;}
</style>
<g id="Add_User">
	<g>
		<g>
			<path class="st2" d="M173.9,1277.4h1188.2c-48.9-38.7-92.1-61.9-120.7-75.4c-123.9-58.7-217.5-51.6-241.4-113.2
				c-7.9-20.3-8.3-48.5-33.9-71.7c-15.8-14.3-27.3-14-37.7-30.2c-13.5-20.9-10.1-45.7-7.5-64.1c3.1-22.2,7.8-23.4,22.6-67.9
				c13.7-40.9,11.9-46.5,22.6-67.9c11.8-23.5,17.2-23.6,30.2-45.3c30.6-51.1,37.3-113.2,22.6-120.7c-5.1-2.6-10,3-15.1,0
				c-10.2-6-3.5-34.9,3.8-64.1c10.8-43.7,9.8-107.7-18.9-135.8c-4.8-4.7-12.3-10.3-22.6-22.6c-13.4-16-20.2-29.6-22.6-33.9
				c-24.2-43.4-118.1-67.9-188.6-64.1c-15.4,0.8-28.9,3-33.9,3.8c-20.8,3.3-51.9,10.3-86.8,26.4c-22.5,10.4-33.9,15.9-41.5,26.4
				c-8.5,11.8-7.4,20-18.9,37.7c-8.7,13.4-15.2,17.8-22.6,26.4c-19.4,22.4-23.9,49.1-26.4,64.1c-11.5,68.1,38.5,123,20.7,137.7
				c-5.9,4.9-11.3-1.3-18.9,3.8c-22.2,14.7-9.6,89.1,30.2,143.3c7.4,10,7.4,8.1,15.1,18.9c6.5,9.1,28.9,41.7,41.5,101.8
				c9.7,46.4,15.2,72.7,0,90.5c-11.6,13.6-23.4,8.3-37.7,22.6c-21.9,21.9-13,53-18.9,75.4c-13,49.8-95.3,59.6-162.2,79.2
				c-55.5,16.3-130.1,47.2-213.1,111.3C179,1272.4,176.4,1274.9,173.9,1277.4z"/>
			<g>
				<circle class="st3" cx="1107.7" cy="1050.7" r="228.2"/>
				<g>
					<g>
						<path class="st4" d="M1249.1,1045.7c-31.6,0-63.2,0-94.8,0c-50,0-99.9,0-149.9,0c-11.5,0-23,0-34.5,0c-6.4,0-6.4,10,0,10
							c31.6,0,63.2,0,94.8,0c50,0,99.9,0,149.9,0c11.5,0,23,0,34.5,0C1255.6,1055.7,1255.6,1045.7,1249.1,1045.7L1249.1,1045.7z"/>
					</g>
				</g>
				<circle class="st3" cx="1107.7" cy="1050.7" r="228.2"/>
				<g>
					<g>
						<path class="st4" d="M1083.3,909.2c0,31.6,0,63.2,0,94.8c0,50,0,99.9,0,149.9c0,11.5,0,23,0,34.5c0,15.7,13.8,30.7,30,30
							c16.3-0.7,30-13.2,30-30c0-31.6,0-63.2,0-94.8c0-50,0-99.9,0-149.9c0-11.5,0-23,0-34.5c0-15.7-13.8-30.7-30-30
							C1097.1,880,1083.3,892.4,1083.3,909.2L1083.3,909.2z"/>
					</g>
				</g>
				<g>
					<g>
						<path class="st4" d="M1249.1,1020.7c-31.6,0-63.2,0-94.8,0c-50,0-99.9,0-149.9,0c-11.5,0-23,0-34.5,0c-15.7,0-30.7,13.8-30,30
							c0.7,16.3,13.2,30,30,30c31.6,0,63.2,0,94.8,0c50,0,99.9,0,149.9,0c11.5,0,23,0,34.5,0c15.7,0,30.7-13.8,30-30
							C1278.4,1034.4,1266,1020.7,1249.1,1020.7L1249.1,1020.7z"/>
					</g>
				</g>
			</g>
		</g>
		<path class="st2" d="M701.4,310c-16.4-1.2-40.3-4.6-66.9-15.2c-41.8-16.6-70-43-73-39.5c-2.8,3.3,22.2,28.7,36.5,60.8
			c1.1,2.5,6.3,14.5,6.1,30.4c-0.1,7.6-0.2,14-3,15.2c-9.7,3.9-41.2-57-45.6-54.7c-2.9,1.4,11.1,26.5,15.2,60.8
			c2.8,23.8,0,44-3,57.8"/>
	</g>
</g>
</svg>
