<?xml version="1.0" encoding="utf-8"?>
<!-- Generator: Adobe Illustrator 22.0.1, SVG Export Plug-In . SVG Version: 6.00 Build 0)  -->
<svg version="1.1" xmlns="http://www.w3.org/2000/svg" xmlns:xlink="http://www.w3.org/1999/xlink" x="0px" y="0px"
	 viewBox="0 0 1536 1536" style="enable-background:new 0 0 1536 1536;" xml:space="preserve">
<style type="text/css">
	.st0{display:none;}
	.st1{display:inline;fill:none;stroke:#000000;stroke-miterlimit:10;}
	.st2{fill:#B3B3B3;stroke:#B3B3B3;stroke-width:5;stroke-miterlimit:10;}
	.st3{fill:#FFFFFF;stroke:#FFFFFF;stroke-miterlimit:10;}
	.st4{fill:none;stroke:#56AA1C;stroke-width:2;stroke-miterlimit:10;}
	.st5{fill:#56AA1C;}
	.st6{fill:none;stroke:#FFFFFF;stroke-width:5;stroke-miterlimit:10;}
	.st7{fill:#3C3C3B;stroke:#3C3C3B;stroke-miterlimit:10;}
	.st8{fill:url(#SVGID_1_);}
</style>
<g id="Events">
	<g>
		<g>
			<path class="st2" d="M1356,1186.9H185c-28.7,0-52-23.3-52-52V442c0-28.7,23.3-52,52-52h1171c28.7,0,52,23.3,52,52v692.8
				C1408,1163.6,1384.7,1186.9,1356,1186.9z"/>
			<rect x="206" y="542.7" class="st3" width="106.3" height="106.3"/>
			<rect x="352.1" y="542.7" class="st3" width="106.3" height="106.3"/>
			<rect x="644.3" y="542.7" class="st3" width="106.3" height="106.3"/>
			<rect x="936.5" y="542.7" class="st3" width="106.3" height="106.3"/>
			<rect x="1228.7" y="542.7" class="st3" width="106.3" height="106.3"/>
			<rect x="206" y="702.1" class="st3" width="106.3" height="106.3"/>
			<rect x="498.2" y="702.1" class="st3" width="106.3" height="106.3"/>
			<rect x="1082.6" y="702.1" class="st3" width="106.3" height="106.3"/>
			<rect x="352.1" y="861.5" class="st3" width="106.3" height="106.3"/>
			<rect x="644.3" y="861.5" class="st3" width="106.3" height="106.3"/>
			<rect x="790.4" y="702.1" class="st3" width="106.3" height="106.3"/>
			<rect x="936.5" y="861.5" class="st3" width="106.3" height="106.3"/>
			<rect x="1228.7" y="861.5" class="st3" width="106.3" height="106.3"/>
			<rect x="790.4" y="1020.9" class="st3" width="106.3" height="106.3"/>
			<rect x="1082.6" y="1020.9" class="st3" width="106.3" height="106.3"/>
			<rect x="498.2" y="1020.9" class="st3" width="106.3" height="106.3"/>
			<rect x="206" y="1020.9" class="st3" width="106.3" height="106.3"/>
			<rect x="498.2" y="542.7" class="st3" width="106.3" height="106.3"/>
			<rect x="790.4" y="542.7" class="st3" width="106.3" height="106.3"/>
			<rect x="1082.6" y="542.7" class="st3" width="106.3" height="106.3"/>
			<rect x="352.1" y="702.1" class="st3" width="106.3" height="106.3"/>
			<rect x="644.3" y="702.1" class="st3" width="106.3" height="106.3"/>
			<rect x="936.5" y="702.1" class="st3" width="106.3" height="106.3"/>
			<rect x="1228.7" y="702.1" class="st3" width="106.3" height="106.3"/>
			<rect x="206" y="861.5" class="st3" width="106.3" height="106.3"/>
			<rect x="498.2" y="861.5" class="st3" width="106.3" height="106.3"/>
			<rect x="790.4" y="861.5" class="st3" width="106.3" height="106.3"/>
			<rect x="1082.6" y="861.5" class="st3" width="106.3" height="106.3"/>
			<rect x="352.1" y="1020.9" class="st3" width="106.3" height="106.3"/>
			<rect x="644.3" y="1020.9" class="st3" width="106.3" height="106.3"/>
			<rect x="936.5" y="1020.9" class="st3" width="106.3" height="106.3"/>
			<rect x="1228.7" y="1020.9" class="st3" width="106.3" height="106.3"/>
			<line class="st4" x1="133" y1="480.8" x2="1408" y2="480.8"/>
			<rect x="206" y="542.7" class="st3" width="106.3" height="106.3"/>
			<rect x="352.1" y="542.7" class="st5" width="106.3" height="106.3"/>
			<rect x="644.3" y="542.7" class="st3" width="106.3" height="106.3"/>
			<rect x="936.5" y="542.7" class="st3" width="106.3" height="106.3"/>
			<rect x="1228.7" y="542.7" class="st3" width="106.3" height="106.3"/>
			<rect x="206" y="702.1" class="st3" width="106.3" height="106.3"/>
			<rect x="498.2" y="702.1" class="st3" width="106.3" height="106.3"/>
			<rect x="1082.6" y="702.1" class="st3" width="106.3" height="106.3"/>
			<rect x="352.1" y="861.5" class="st3" width="106.3" height="106.3"/>
			<rect x="644.3" y="861.5" class="st3" width="106.3" height="106.3"/>
			<rect x="790.4" y="702.1" class="st3" width="106.3" height="106.3"/>
			<rect x="936.5" y="861.5" class="st3" width="106.3" height="106.3"/>
			<rect x="1228.7" y="861.5" class="st3" width="106.3" height="106.3"/>
			<rect x="790.4" y="1020.9" class="st3" width="106.3" height="106.3"/>
			<rect x="1082.6" y="1020.9" class="st3" width="106.3" height="106.3"/>
			<rect x="498.2" y="1020.9" class="st3" width="106.3" height="106.3"/>
			<rect x="206" y="1020.9" class="st3" width="106.3" height="106.3"/>
			<rect x="498.2" y="542.7" class="st3" width="106.3" height="106.3"/>
			<rect x="790.4" y="542.7" class="st3" width="106.3" height="106.3"/>
			<rect x="1082.6" y="542.7" class="st3" width="106.3" height="106.3"/>
			<rect x="352.1" y="702.1" class="st3" width="106.3" height="106.3"/>
			<rect x="644.3" y="702.1" class="st3" width="106.3" height="106.3"/>
			<rect x="936.5" y="702.1" class="st3" width="106.3" height="106.3"/>
			<rect x="1228.7" y="702.1" class="st3" width="106.3" height="106.3"/>
			<rect x="206" y="861.5" class="st3" width="106.3" height="106.3"/>
			<rect x="498.2" y="861.5" class="st3" width="106.3" height="106.3"/>
			<rect x="790.4" y="861.5" class="st3" width="106.3" height="106.3"/>
			<rect x="1082.6" y="861.5" class="st3" width="106.3" height="106.3"/>
			<rect x="352.1" y="1020.9" class="st3" width="106.3" height="106.3"/>
			<rect x="644.3" y="1020.9" class="st3" width="106.3" height="106.3"/>
			<rect x="936.5" y="1020.9" class="st3" width="106.3" height="106.3"/>
			<rect x="1228.7" y="1020.9" class="st3" width="106.3" height="106.3"/>
			<line class="st6" x1="133" y1="480.8" x2="1408" y2="480.8"/>
		</g>
		<path class="st7" d="M601.3,693.7c20.4-34.1,32.4-73.8,32.4-116.4c0-125.4-101.7-227.1-227.1-227.1S179.5,451.8,179.5,577.3
			c0,125.4,101.7,227.1,227.1,227.1c57.9,0,110.5-21.8,150.6-57.5l170.4,170.4l48.7-48.7L601.3,693.7z M406.6,749.3
			c-95,0-172.1-77-172.1-172.1s77-172.1,172.1-172.1s172.1,77,172.1,172.1S501.6,749.3,406.6,749.3z"/>
		<linearGradient id="SVGID_1_" gradientUnits="userSpaceOnUse" x1="531.1873" y1="703.4279" x2="281.0131" y2="453.2537">
			<stop  offset="0" style="stop-color:#FFFFFF;stop-opacity:0"/>
			<stop  offset="1" style="stop-color:#FFFFFF;stop-opacity:0.7"/>
		</linearGradient>
		<circle class="st8" cx="406.1" cy="578.3" r="176.9"/>
	</g>
</g>
</svg>
