<?xml version="1.0" encoding="utf-8"?>
<!-- Generator: Adobe Illustrator 22.0.1, SVG Export Plug-In . SVG Version: 6.00 Build 0)  -->
<svg version="1.1" xmlns="http://www.w3.org/2000/svg" xmlns:xlink="http://www.w3.org/1999/xlink" x="0px" y="0px"
	 viewBox="0 0 1536 1536" style="enable-background:new 0 0 1536 1536;" xml:space="preserve">
<style type="text/css">
	.st0{display:none;}
	.st1{display:inline;fill:none;stroke:#000000;stroke-miterlimit:10;}
	.st2{fill:url(#SVGID_1_);}
</style>
<g id="Guides" class="st0">
	<circle class="st1" cx="768.5" cy="768.5" r="640"/>
	<path class="st1" d="M1332,1344H204c-6.6,0-12-5.4-12-12V204c0-6.6,5.4-12,12-12h1128c6.6,0,12,5.4,12,12v1128
		C1344,1338.6,1338.6,1344,1332,1344z"/>
	<path class="st1" d="M1268,1409H268c-6.6,0-12-5.4-12-12V141c0-6.6,5.4-12,12-12h1000c6.6,0,12,5.4,12,12v1256
		C1280,1403.6,1274.6,1409,1268,1409z"/>
	<path class="st1" d="M128.5,1267.5v-1000c0-6.6,5.4-12,12-12h1256c6.6,0,12,5.4,12,12v1000c0,6.6-5.4,12-12,12h-1256
		C133.9,1279.5,128.5,1274.1,128.5,1267.5z"/>
</g>
<g id="Generate_Roll_Call">
	<linearGradient id="SVGID_1_" gradientUnits="userSpaceOnUse" x1="766" y1="1407.2491" x2="766" y2="129.9975">
		<stop  offset="0" style="stop-color:#FFFC3A"/>
		<stop  offset="0.246" style="stop-color:#FF5E13"/>
		<stop  offset="0.5257" style="stop-color:#FF5D13"/>
		<stop  offset="1" style="stop-color:#FF0000"/>
	</linearGradient>
	<path class="st2" d="M516.9,1377.1c-41.8-16.6-103.5-42.1-153.6-107.5c-13.3-17.3-54.9-73.2-61.4-153.6
		c-7.1-87.9,31.2-163.1,53.7-207.3c18.5-36.2,31.1-49.9,46.1-92.1c10.7-30,23.7-66.9,23-115.2c-0.9-59.6-7.7-99.8-7.7-99.8
		c-3.9-22.7-8.3-39.9,0-46.1c10.4-7.7,33.7,7.3,46.1,15.4c45,29.1,68.1,67.5,69.1,69.1c53.6,91.2,37.4,207.3,38.4,207.3
		c0.6,0,0.1-28.9,0-46.1c-0.5-52.4,1.4-62.7,0-92.1c-1.6-32.7-5.6-55.2-7.7-69.1c-9.7-64.7-7.3-144.3,0-199.6
		c7.9-60.4,21.7-155.5,92.1-230.3c47.6-50.6,121.5-92.2,138.2-76.8c7.5,6.9,2,24,0,30.7c-35.4,117.3,3.7,310.5,7.7,330.2
		c24.3,120.1,96.8,222.3,122.8,215c15.7-4.4,3.4-45.3,23-99.8c42.8-119.1,192.5-178.3,207.3-161.2c8.5,9.8-32.7,39-46.1,107.5
		c-4.7,24.3-5.8,52.5,7.7,115.2c19.8,92.5,42.4,125.8,76.8,230.3c25.1,76.2,37.6,114.4,38.4,145.9c2.8,117.3-67.4,203-84.5,222.7
		c-54,62.4-114.3,86.1-168.9,107.5c-34.1,13.4-72,24-76.8,15.4c-3.6-6.5,14.9-18.7,38.4-53.7c14.4-21.4,25.2-37.7,30.7-61.4
		c9.4-40.9-3.8-75.3-7.7-84.5c-8-19.1-12.4-17.1-23-38.4c-22.4-44.8-18.5-84.5-23-84.5c-3.4,0-5.7,22.8-15.4,76.8
		c-5.8,32.6-7.5,42.9-15.4,46.1c-13.4,5.3-34.8-14.3-46.1-30.7c-23-33.5-17.9-73.8-15.4-92.1c7.2-51.3,28-53.2,30.7-92.1
		c3.9-57.1-37-110.5-46.1-107.5c-4.7,1.6,1.6,17.1,0,46.1c-3.2,58.5-34.2,101-61.4,138.2c-1.8,2.5-18.2,24.6-46.1,46.1
		c-15.2,11.7-24.1,18.4-30.7,15.4c-11.6-5.3-1.8-33.6-15.4-76.8c-4.7-15.1-12.1-31.5-15.4-30.7c-4.1,1,4.7,27.6,0,61.4
		c-3.2,23-10,30.9-30.7,76.8c-19.5,43.1-29.2,64.7-30.7,76.8c-6.4,52.3,23.1,96.2,30.7,107.5c32.5,48.2,72.8,58.6,69.1,69.1
		C673,1414.6,591.9,1407,516.9,1377.1z"/>
</g>
</svg>
