<?xml version="1.0" encoding="utf-8"?>
<!-- Generator: Adobe Illustrator 22.0.1, SVG Export Plug-In . SVG Version: 6.00 Build 0)  -->
<svg version="1.1" xmlns="http://www.w3.org/2000/svg" xmlns:xlink="http://www.w3.org/1999/xlink" x="0px" y="0px"
	 viewBox="0 0 1536 1536" style="enable-background:new 0 0 1536 1536;" xml:space="preserve">
<style type="text/css">
	.st0{display:none;}
	.st1{display:inline;fill:none;stroke:#000000;stroke-miterlimit:10;}
	.st2{fill:#B3B3B3;}
	.st3{fill:#3C3C3C;stroke:#FFFFFF;stroke-width:0.5;stroke-miterlimit:10;}
</style>
<g id="Open_Door">
	<rect class="st0" width="1536" height="1536"/>
	<g>
		<path class="st2" d="M396.1,1330.1h40.1c6.6,0,12-5.4,12-12V243.5c0-5.3,3.5-10,8.5-11.5l126-38.1c13.2-4,10.3-23.5-3.5-23.5
			H396.1c-6.6,0-12,5.4-12,12v1135.6C384.1,1324.7,389.5,1330.1,396.1,1330.1z"/>
		<path class="st2" d="M996,182.5v45.1c0,6.6,5.4,12,12,12h69.8c6.6,0,12,5.4,12,12v1066.5c0,6.6,5.4,12,12,12h40.1
			c6.6,0,12-5.4,12-12V182.5c0-6.6-5.4-12-12-12H1008C1001.3,170.5,996,175.8,996,182.5z"/>
		<path class="st2" d="M946.2,129.7c-151.5,42.4-303.1,84.7-454.6,127.1c-5.2,1.5-8.8,6.2-8.8,11.6c0.5,349.9,1,699.8,1.4,1049.7
			c0,5.8,4.2,10.8,9.9,11.8c148.3,26.2,296.7,52.4,445,78.6c1.7,0.3,3.4,0.2,5-0.2c2.7-0.7,5.4-1.4,8.2-2c5.3-1.3,9.1-6.1,9.1-11.6
			V141.3C955.1,136.5,952.5,134.5,946.2,129.7z M876.3,684.3c-112.2-14.8-224.4-29.7-336.7-44.5c-5.9-0.8-10.4-5.8-10.4-11.8
			L526,313.2c-0.1-5.6,3.8-10.5,9.2-11.8c113.3-26.8,226.6-53.7,339.9-80.5c7.5-1.8,14.8,3.9,14.8,11.7v439.9
			C889.9,679.7,883.5,685.3,876.3,684.3z"/>
		<path class="st3" d="M939.2,133.5c0,424.9,0,849.7,0,1274.6"/>
	</g>
	<path class="st2" d="M1674,903"/>
</g>
</svg>
